<svg width="362" height="83" viewBox="0 0 362 83" fill="none" xmlns="http://www.w3.org/2000/svg">
<rect width="362" height="83" rx="41.5" fill="white" fill-opacity="0.05"/>
<path fill-rule="evenodd" clip-rule="evenodd" d="M34.332 37.333C34.332 36.4048 34.7008 35.5145 35.3572 34.8581C36.0135 34.2018 36.9038 33.833 37.832 33.833H54.1654C55.0936 33.833 55.9839 34.2018 56.6402 34.8581C57.2966 35.5145 57.6654 36.4048 57.6654 37.333V46.6663C57.6654 47.5946 57.2966 48.4848 56.6402 49.1412C55.9839 49.7976 55.0936 50.1663 54.1654 50.1663H37.832C36.9038 50.1663 36.0135 49.7976 35.3572 49.1412C34.7008 48.4848 34.332 47.5946 34.332 46.6663V37.333ZM44.832 41.9997C44.832 41.6903 44.9549 41.3935 45.1737 41.1747C45.3925 40.9559 45.6893 40.833 45.9987 40.833C46.3081 40.833 46.6049 40.9559 46.8237 41.1747C47.0424 41.3935 47.1654 41.6903 47.1654 41.9997C47.1654 42.3091 47.0424 42.6058 46.8237 42.8246C46.6049 43.0434 46.3081 43.1663 45.9987 43.1663C45.6893 43.1663 45.3925 43.0434 45.1737 42.8246C44.9549 42.6058 44.832 42.3091 44.832 41.9997ZM45.9987 38.4997C45.0704 38.4997 44.1802 38.8684 43.5238 39.5248C42.8674 40.1812 42.4987 41.0714 42.4987 41.9997C42.4987 42.9279 42.8674 43.8182 43.5238 44.4745C44.1802 45.1309 45.0704 45.4997 45.9987 45.4997C46.927 45.4997 47.8172 45.1309 48.4736 44.4745C49.13 43.8182 49.4987 42.9279 49.4987 41.9997C49.4987 41.0714 49.13 40.1812 48.4736 39.5248C47.8172 38.8684 46.927 38.4997 45.9987 38.4997Z" fill="#F9F9F9"/>
</svg>
