<svg width="27" height="15" viewBox="0 0 27 15" fill="none" xmlns="http://www.w3.org/2000/svg">
<path d="M9.81771 9.81771C10.5226 9.11285 10.875 8.25694 10.875 7.25C10.875 6.24306 10.5226 5.38715 9.81771 4.68229C9.11285 3.97743 8.25694 3.625 7.25 3.625C6.24306 3.625 5.38715 3.97743 4.68229 4.68229C3.97743 5.38715 3.625 6.24306 3.625 7.25C3.625 8.25694 3.97743 9.11285 4.68229 9.81771C5.38715 10.5226 6.24306 10.875 7.25 10.875C8.25694 10.875 9.11285 10.5226 9.81771 9.81771ZM7.25 14.5C5.23611 14.5 3.52431 13.7951 2.11458 12.3854C0.704861 10.9757 0 9.26389 0 7.25C0 5.23611 0.704861 3.52431 2.11458 2.11458C3.52431 0.704861 5.23611 0 7.25 0C8.88125 0 10.3063 0.463195 11.5251 1.38958C12.7439 2.31597 13.5946 3.46389 14.0771 4.83333H24.1969L26.5833 7.21979L22.3542 12.0531L19.3333 9.66667L16.9167 12.0833L14.5 9.66667H14.0771C13.5736 11.1167 12.6976 12.2847 11.449 13.1708C10.2003 14.0569 8.80069 14.5 7.25 14.5Z" fill="#F9F9F9"/>
</svg>
