<svg width="22" height="23" viewBox="0 0 22 23" fill="none" xmlns="http://www.w3.org/2000/svg">
<path d="M4.07025 2.17377e-06H6.42375L4.0635 6.75H0L3.0645 0.621002C3.15802 0.434371 3.30162 0.277442 3.47925 0.16777C3.65687 0.0580981 3.8615 9.17878e-06 4.07025 2.17377e-06ZM0.081 9L6.8625 19.5458L4.00275 9H0.081ZM6.33375 9L9.77625 21.7013C9.83726 21.9316 9.97273 22.1353 10.1616 22.2806C10.3504 22.4259 10.582 22.5047 10.8203 22.5047C11.0585 22.5047 11.2901 22.4259 11.4789 22.2806C11.6678 22.1353 11.8032 21.9316 11.8643 21.7013L15.3158 9H6.33375ZM17.6468 9L14.7803 19.5413L21.5595 9H17.6468ZM21.6405 6.75H17.5837L15.2212 2.17377e-06H17.5703C17.7794 -0.000408874 17.9845 0.0574829 18.1625 0.167178C18.3406 0.276873 18.4846 0.434029 18.5782 0.621002L21.6405 6.75ZM15.201 6.75H6.4485L8.8065 2.17377e-06H12.834L15.201 6.75Z" fill="#F9F9F9"/>
</svg>
