<svg width="21" height="21" viewBox="0 0 21 21" fill="none" xmlns="http://www.w3.org/2000/svg">
<path d="M17.25 1.43743H16.5312V0.738899C16.5312 0.352122 16.2339 0.0201493 15.8471 0.000832842C15.7499 -0.00384946 15.6528 0.0112476 15.5616 0.0452093C15.4704 0.079171 15.3871 0.13129 15.3167 0.198409C15.2462 0.265527 15.1902 0.346248 15.1518 0.435679C15.1135 0.52511 15.0938 0.62139 15.0938 0.718684V1.43743H5.03125V0.738899C5.03125 0.352122 4.73387 0.0201493 4.34709 0.000832842C4.24991 -0.00384946 4.15279 0.0112476 4.06161 0.0452093C3.97044 0.079171 3.88711 0.13129 3.81667 0.198409C3.74623 0.265527 3.69016 0.346248 3.65184 0.435679C3.61352 0.52511 3.59376 0.62139 3.59375 0.718684V1.43743H2.875C2.1125 1.43743 1.38124 1.74034 0.842068 2.2795C0.302901 2.81867 0 3.54994 0 4.31243V4.8515C0 4.89915 0.0189313 4.94486 0.0526293 4.97856C0.0863272 5.01225 0.132031 5.03118 0.179688 5.03118H19.9453C19.993 5.03118 20.0387 5.01225 20.0724 4.97856C20.1061 4.94486 20.125 4.89915 20.125 4.8515V4.31243C20.125 3.54994 19.8221 2.81867 19.2829 2.2795C18.7438 1.74034 18.0125 1.43743 17.25 1.43743ZM19.9902 6.46868H0.134766C0.0990236 6.46868 0.0647455 6.48288 0.039472 6.50816C0.0141985 6.53343 0 6.56771 0 6.60345V17.2499C0 18.0124 0.302901 18.7437 0.842068 19.2829C1.38124 19.822 2.1125 20.1249 2.875 20.1249H17.25C18.0125 20.1249 18.7438 19.822 19.2829 19.2829C19.8221 18.7437 20.125 18.0124 20.125 17.2499V6.60345C20.125 6.56771 20.1108 6.53343 20.0855 6.50816C20.0603 6.48288 20.026 6.46868 19.9902 6.46868ZM8.625 12.3728C8.625 12.7132 8.48978 13.0396 8.2491 13.2803C8.00841 13.521 7.68197 13.6562 7.34158 13.6562H4.15842C3.81803 13.6562 3.49159 13.521 3.2509 13.2803C3.01022 13.0396 2.875 12.7132 2.875 12.3728V9.1896C2.875 8.84922 3.01022 8.52278 3.2509 8.28209C3.49159 8.0414 3.81803 7.90618 4.15842 7.90618H7.34158C7.68197 7.90618 8.00841 8.0414 8.2491 8.28209C8.48978 8.52278 8.625 8.84922 8.625 9.1896V12.3728Z" fill="#F9F9F9"/>
</svg>
