<svg width="80" height="80" viewBox="0 0 80 80" fill="none" xmlns="http://www.w3.org/2000/svg">
<rect x="0.5" y="0.5" width="79" height="79" rx="14.5" fill="url(#paint0_linear_85_22)" stroke="white"/>
<g filter="url(#filter0_i_85_22)">
<path d="M25.6 61.5984C25.6 61.5984 22 61.5984 22 57.9984C22 54.3984 25.6 43.5984 40 43.5984C54.4 43.5984 58 54.3984 58 57.9984C58 61.5984 54.4 61.5984 54.4 61.5984H25.6ZM40 39.9984C42.8643 39.9984 45.6114 38.8606 47.6368 36.8352C49.6621 34.8098 50.8 32.0628 50.8 29.1984C50.8 26.3341 49.6621 23.5871 47.6368 21.5617C45.6114 19.5363 42.8643 18.3984 40 18.3984C37.1357 18.3984 34.3886 19.5363 32.3632 21.5617C30.3379 23.5871 29.2 26.3341 29.2 29.1984C29.2 32.0628 30.3379 34.8098 32.3632 36.8352C34.3886 38.8606 37.1357 39.9984 40 39.9984Z" fill="#C5C5C5"/>
<path d="M25.6 61.5984C25.6 61.5984 22 61.5984 22 57.9984C22 54.3984 25.6 43.5984 40 43.5984C54.4 43.5984 58 54.3984 58 57.9984C58 61.5984 54.4 61.5984 54.4 61.5984H25.6ZM40 39.9984C42.8643 39.9984 45.6114 38.8606 47.6368 36.8352C49.6621 34.8098 50.8 32.0628 50.8 29.1984C50.8 26.3341 49.6621 23.5871 47.6368 21.5617C45.6114 19.5363 42.8643 18.3984 40 18.3984C37.1357 18.3984 34.3886 19.5363 32.3632 21.5617C30.3379 23.5871 29.2 26.3341 29.2 29.1984C29.2 32.0628 30.3379 34.8098 32.3632 36.8352C34.3886 38.8606 37.1357 39.9984 40 39.9984Z" fill="url(#paint1_linear_85_22)"/>
</g>
<defs>
<filter id="filter0_i_85_22" x="22" y="18.3984" width="37.8947" height="46.9887" filterUnits="userSpaceOnUse" color-interpolation-filters="sRGB">
<feFlood flood-opacity="0" result="BackgroundImageFix"/>
<feBlend mode="normal" in="SourceGraphic" in2="BackgroundImageFix" result="shape"/>
<feColorMatrix in="SourceAlpha" type="matrix" values="0 0 0 0 0 0 0 0 0 0 0 0 0 0 0 0 0 0 127 0" result="hardAlpha"/>
<feOffset dx="1.89474" dy="3.78947"/>
<feGaussianBlur stdDeviation="3"/>
<feComposite in2="hardAlpha" operator="arithmetic" k2="-1" k3="1"/>
<feColorMatrix type="matrix" values="0 0 0 0 0.0136907 0 0 0 0 0.0136907 0 0 0 0 0.0136907 0 0 0 0.2 0"/>
<feBlend mode="normal" in2="shape" result="effect1_innerShadow_85_22"/>
</filter>
<linearGradient id="paint0_linear_85_22" x1="-3" y1="-3" x2="77" y2="82.5" gradientUnits="userSpaceOnUse">
<stop stop-color="#F4F4F4"/>
<stop offset="0.506636" stop-color="#F2F2F2"/>
<stop offset="0.983925" stop-color="#B2B2B2"/>
</linearGradient>
<linearGradient id="paint1_linear_85_22" x1="12.0526" y1="18.2097" x2="63.125" y2="53.6058" gradientUnits="userSpaceOnUse">
<stop stop-color="#ECECEC"/>
<stop offset="0.983925" stop-color="#7B7B7B"/>
</linearGradient>
</defs>
</svg>
